<svg id="Layer_1" data-name="Layer 1" xmlns="http://www.w3.org/2000/svg" viewBox="0 0 129.01 80.97"><defs><style>.cls-1{fill:#025f72;}</style></defs><path id="behance-brands" class="cls-1" d="M727.83,343.57A17,17,0,0,0,738.68,327c0-15.81-11.78-19.67-25.38-19.67H675.87V386.7h38.47c14.43,0,28-6.91,28-23A19.12,19.12,0,0,0,727.83,343.57Zm-34.52-22.69h16.38c6.29,0,12,1.73,12,9.07,0,6.74-4.42,9.46-10.64,9.46h-17.7ZM712,373.23H693.31V351.4h19c7.68,0,12.55,3.2,12.55,11.34S719.07,373.23,712,373.23Zm80.3-53.91H760.08v-7.78h32.19Zm12.6,39.48c0-17-9.94-31.17-28-31.17A28.88,28.88,0,0,0,747.48,356c0,.69,0,1.37,0,2.06a28,28,0,0,0,25.69,30.13,30.13,30.13,0,0,0,3.68.05,25.62,25.62,0,0,0,26.9-19.33H789.87a14.31,14.31,0,0,1-26.64-4.14,12.39,12.39,0,0,1,.06-3h41.47c0-.95.12-2,.12-3Zm-41.57-7a12.35,12.35,0,0,1,12.39-12.29l.71,0A11.77,11.77,0,0,1,789,350.45a10.29,10.29,0,0,1,0,1.36Z" transform="translate(-675.87 -307.33)"/></svg>