<svg id="Layer_1" data-name="Layer 1" xmlns="http://www.w3.org/2000/svg" viewBox="0 0 171.7 171.7"><defs><style>.cls-1{fill:#025f72;}</style></defs><path id="codepen-brands" class="cls-1" d="M843.23,274.07l-78.47-52.32a7.48,7.48,0,0,0-8.24,0L678,274.07a7.51,7.51,0,0,0-3.25,6.13v52.32a7.51,7.51,0,0,0,3.25,6.13L756.52,391a7.44,7.44,0,0,0,8.24,0l78.47-52.32a7.5,7.5,0,0,0,3.26-6.13V280.2A7.5,7.5,0,0,0,843.23,274.07ZM768,241.68l57.78,38.52L800,297.45l-32-21.37Zm-14.76,0v34.4l-32,21.37L695.48,280.2ZM689.55,294,708,306.36l-18.49,12.36Zm63.71,77-57.78-38.52,25.78-17.25,32,21.37Zm7.38-47.22-26.06-17.45,26.06-17.45,26.06,17.45ZM768,371v-34.4l32-21.37,25.77,17.25Zm63.72-52.32-18.5-12.35L831.73,294Z" transform="translate(-674.79 -220.51)"/></svg>