<svg id="Layer_1" data-name="Layer 1" xmlns="http://www.w3.org/2000/svg" viewBox="0 0 282.73 275.76"><defs><style>.cls-1{fill:#025f72;}</style></defs><path id="github-brands" class="cls-1" d="M769.65,338.05c0,1.14-1.31,2.05-3,2.05s-3.19-.74-3.19-2.05,1.31-2.05,3-2.05S769.65,336.74,769.65,338.05Zm-17.78-2.56c-.4,1.14.73,2.46,2.45,2.8a2.69,2.69,0,0,0,3.54-1.15c.34-1.14-.74-2.45-2.46-3A2.92,2.92,0,0,0,751.87,335.49Zm25.24-1c-1.71.39-2.8,1.48-2.63,2.8s1.71,1.87,3.42,1.48,2.8-1.48,2.62-2.63S778.77,334.35,777.11,334.52ZM814.63,116A136.72,136.72,0,0,0,675.07,249.86c0,1.76,0,3.52,0,5.29A142.93,142.93,0,0,0,771.7,391.53c7.31,1.31,9.87-3.2,9.87-6.83s-.18-23-.18-35c0,0-39.9,8.53-48.28-17.07,0,0-6.5-16.59-15.86-20.87,0,0-13.06-8.95.91-8.78a30.13,30.13,0,0,1,22,14.72A30.14,30.14,0,0,0,781,330.06c.26-.14.52-.28.77-.43a31.65,31.65,0,0,1,9.11-19.21c-31.86-3.54-64-8.16-64-63a43.22,43.22,0,0,1,13.45-33.58,53.92,53.92,0,0,1,1.48-38.71c12-3.7,39.26,15.36,39.26,15.36a134.82,134.82,0,0,1,71.69,0s27.43-19.15,39.26-15.36a53.82,53.82,0,0,1,1.48,38.71,44.38,44.38,0,0,1,14.72,33.58c0,55-33.58,59.41-65.46,63a33.68,33.68,0,0,1,9.69,26.45c0,19.22-.17,43-.17,47.66,0,3.7,2.63,8.21,9.87,6.82A141.67,141.67,0,0,0,957.75,255.1,139.8,139.8,0,0,0,817.26,116ZM730.48,312.69c-.73.56-.56,1.87.39,3s2.22,1.31,3,.56.57-1.88-.39-3S731.21,311.93,730.48,312.69Zm-6.16-4.63c-.39.73.17,1.71,1.31,2.22A1.71,1.71,0,0,0,728,310l.06-.08c.39-.74-.17-1.71-1.31-2.22A1.94,1.94,0,0,0,724.32,308.06Zm18.47,20.29c-.91.74-.57,2.46.73,3.54s3,1.48,3.7.56.4-2.46-.73-3.53S743.54,327.45,742.79,328.35ZM736.28,320c-.9.57-.9,2,0,3.42s2.46,1.88,3.19,1.31a2.58,2.58,0,0,0,0-3.53C738.69,319.8,737.2,319.15,736.28,320Z" transform="translate(-675.04 -116)"/></svg>