<svg id="Layer_1" data-name="Layer 1" xmlns="http://www.w3.org/2000/svg" viewBox="0 0 118.07 118.06"><defs><style>.cls-1{fill:#025f72;}</style></defs><path id="instagram-brands" class="cls-1" d="M735.24,301.5a30.27,30.27,0,1,0,30.26,30.26h0a30.22,30.22,0,0,0-30.17-30.26Zm0,49.95a19.68,19.68,0,1,1,19.67-19.68,19.68,19.68,0,0,1-19.67,19.68Zm38.56-51.19a7.06,7.06,0,1,1-7.06-7.05,7.06,7.06,0,0,1,7.06,7.05v0Zm20.05,7.17a32.71,32.71,0,0,0-34.27-34.27c-9.75-.55-39-.55-48.7,0a32.65,32.65,0,0,0-34.27,34.28c-.56,9.74-.56,39,0,48.7a32.69,32.69,0,0,0,34.27,34.25c9.74.56,39,.56,48.7,0a32.71,32.71,0,0,0,34.27-34.27c.55-9.72.55-38.91,0-48.66Zm-12.59,59.13A20,20,0,0,1,770,377.78a129.79,129.79,0,0,1-34.79,2.37,131,131,0,0,1-34.79-2.37,19.92,19.92,0,0,1-11.25-11.18,130.2,130.2,0,0,1-2.37-34.79,131.08,131.08,0,0,1,2.37-34.8,19.94,19.94,0,0,1,11.23-11.21,129.79,129.79,0,0,1,34.79-2.37A131,131,0,0,1,770,285.8,19.91,19.91,0,0,1,781.24,297a129.77,129.77,0,0,1,2.37,34.79,130.19,130.19,0,0,1-2.35,34.79Z" transform="translate(-676.19 -272.75)"/></svg>